<svg width="10" height="10" viewBox="0 0 10 10" fill="none" xmlns="http://www.w3.org/2000/svg">
<path d="M5.7278 5.00139L9.83767 0.913999C10.0347 0.718951 10.0347 0.403199 9.83767 0.208649C9.64113 0.0136003 9.32189 0.0136003 9.12535 0.208649L5.01901 4.29256L0.874691 0.147779C0.67815 -0.0492597 0.358915 -0.0492597 0.162374 0.147779C-0.0341666 0.345315 -0.0341666 0.665047 0.162374 0.862086L4.30367 5.00388L0.147406 9.13717C-0.0491353 9.33222 -0.0491353 9.64797 0.147406 9.84252C0.343947 10.0376 0.663181 10.0376 0.859722 9.84252L5.01246 5.71271L9.14028 9.84103C9.33682 10.0381 9.65605 10.0381 9.8526 9.84103C10.0491 9.64349 10.0491 9.32376 9.8526 9.12672L5.7278 5.00139Z" fill="white"/>
</svg>
