<svg width="42" height="42" viewBox="0 0 42 42" fill="none" xmlns="http://www.w3.org/2000/svg">
<path d="M32.9259 15.7886C32.913 14.8228 32.732 13.8667 32.3908 12.963C32.0949 12.2007 31.643 11.5083 31.064 10.9303C30.4849 10.3522 29.7915 9.90104 29.0279 9.60567C28.1343 9.27077 27.1902 9.08969 26.2359 9.07013C25.0072 9.0153 24.6177 9 21.4987 9C18.3798 9 17.98 9 16.7603 9.07013C15.8064 9.08984 14.8628 9.27092 13.9696 9.60567C13.2059 9.90083 12.5123 10.3519 11.9332 10.93C11.3542 11.5081 10.9023 12.2005 10.6067 12.963C10.2706 13.8544 10.0896 14.7967 10.0715 15.749C10.0166 16.9769 10 17.3658 10 20.4796C10 23.5934 10 23.9912 10.0715 25.2102C10.0907 26.1639 10.2708 27.1049 10.6067 27.9988C10.9028 28.761 11.355 29.4531 11.9343 30.031C12.5135 30.6088 13.2072 31.0597 13.9708 31.3548C14.8616 31.7032 15.8054 31.8972 16.7616 31.9286C17.9915 31.9834 18.3811 32 21.5 32C24.6189 32 25.0187 32 26.2385 31.9286C27.1927 31.9098 28.1368 31.7292 29.0304 31.3943C29.7938 31.0986 30.4871 30.6474 31.0661 30.0693C31.6451 29.4913 32.0971 28.7991 32.3933 28.037C32.7292 27.1445 32.9093 26.2035 32.9285 25.2484C32.9834 24.0218 33 23.6329 33 20.5179C32.9974 17.4041 32.9974 17.0088 32.9259 15.7886ZM21.4911 26.3679C18.2291 26.3679 15.5865 23.7298 15.5865 20.4732C15.5865 17.2167 18.2291 14.5785 21.4911 14.5785C23.057 14.5785 24.5589 15.1996 25.6662 16.305C26.7735 17.4105 27.3956 18.9098 27.3956 20.4732C27.3956 22.0366 26.7735 23.5359 25.6662 24.6414C24.5589 25.7469 23.057 26.3679 21.4911 26.3679ZM27.6306 15.735C26.8681 15.735 26.2538 15.1204 26.2538 14.3605C26.2538 14.18 26.2894 14.0014 26.3585 13.8347C26.4277 13.668 26.5291 13.5165 26.6569 13.389C26.7846 13.2614 26.9364 13.1602 27.1033 13.0911C27.2703 13.0221 27.4492 12.9866 27.63 12.9866C27.8107 12.9866 27.9896 13.0221 28.1566 13.0911C28.3236 13.1602 28.4753 13.2614 28.6031 13.389C28.7309 13.5165 28.8322 13.668 28.9014 13.8347C28.9706 14.0014 29.0062 14.18 29.0062 14.3605C29.0062 15.1204 28.3905 15.735 27.6306 15.735Z" fill="white"/>
<path d="M21.4909 24.3025C23.6092 24.3025 25.3264 22.5881 25.3264 20.4734C25.3264 18.3586 23.6092 16.6443 21.4909 16.6443C19.3727 16.6443 17.6555 18.3586 17.6555 20.4734C17.6555 22.5881 19.3727 24.3025 21.4909 24.3025Z" fill="white"/>
<circle cx="21" cy="21" r="20.5" stroke="white"/>
</svg>
