<svg width="42" height="42" viewBox="0 0 42 42" fill="none" xmlns="http://www.w3.org/2000/svg">
<path d="M21 9C14.3725 9 9 14.3725 9 21C9 27.6275 14.3725 33 21 33C27.6275 33 33 27.6275 33 21C33 14.3725 27.6275 9 21 9ZM25.615 22.5388C25.615 22.5388 26.6763 23.5863 26.9375 24.0725C26.945 24.0825 26.9487 24.0925 26.9513 24.0975C27.0575 24.2762 27.0825 24.415 27.03 24.5188C26.9425 24.6912 26.6425 24.7763 26.54 24.7838H24.665C24.535 24.7838 24.2625 24.75 23.9325 24.5225C23.6788 24.345 23.4288 24.0538 23.185 23.77C22.8213 23.3475 22.5063 22.9825 22.1888 22.9825C22.1484 22.9824 22.1083 22.9888 22.07 23.0013C21.83 23.0788 21.5225 23.4213 21.5225 24.3337C21.5225 24.6188 21.2975 24.7825 21.1388 24.7825H20.28C19.9875 24.7825 18.4637 24.68 17.1137 23.2563C15.4612 21.5125 13.9737 18.015 13.9612 17.9825C13.8675 17.7562 14.0612 17.635 14.2725 17.635H16.1662C16.4187 17.635 16.5012 17.7887 16.5588 17.925C16.6262 18.0837 16.8738 18.715 17.28 19.425C17.9388 20.5825 18.3425 21.0525 18.6663 21.0525C18.727 21.0518 18.7866 21.0363 18.84 21.0075C19.2625 20.7725 19.1838 19.2662 19.165 18.9537C19.165 18.895 19.1637 18.28 18.9475 17.985C18.7925 17.7712 18.5287 17.69 18.3687 17.66C18.4335 17.5706 18.5188 17.4982 18.6175 17.4487C18.9075 17.3038 19.43 17.2825 19.9488 17.2825H20.2375C20.8 17.29 20.945 17.3263 21.1488 17.3775C21.5613 17.4763 21.57 17.7425 21.5338 18.6538C21.5225 18.9125 21.5113 19.205 21.5113 19.55C21.5113 19.625 21.5075 19.705 21.5075 19.79C21.495 20.2537 21.48 20.78 21.8075 20.9963C21.8502 21.023 21.8996 21.0373 21.95 21.0375C22.0638 21.0375 22.4062 21.0375 23.3337 19.4463C23.6198 18.9341 23.8684 18.4018 24.0775 17.8537C24.0963 17.8212 24.1513 17.7213 24.2163 17.6825C24.2642 17.658 24.3174 17.6456 24.3713 17.6462H26.5975C26.84 17.6462 27.0063 17.6825 27.0375 17.7762C27.0925 17.925 27.0275 18.3787 26.0112 19.755L25.5575 20.3538C24.6363 21.5613 24.6363 21.6225 25.615 22.5388Z" fill="white"/>
<circle cx="21" cy="21" r="20.5" stroke="white"/>
</svg>
