<svg width="15" height="15" viewBox="0 0 15 15" fill="none" xmlns="http://www.w3.org/2000/svg">
<path d="M7.5 0C3.36 0 0 3.36 0 7.5C0 11.64 3.36 15 7.5 15C11.64 15 15 11.64 15 7.5C15 3.36 11.64 0 7.5 0ZM5.4675 10.7175L2.775 8.025C2.70556 7.95556 2.65048 7.87313 2.6129 7.78241C2.57533 7.69168 2.55598 7.59445 2.55598 7.49625C2.55598 7.39805 2.57533 7.30082 2.6129 7.21009C2.65048 7.11937 2.70556 7.03694 2.775 6.9675C2.84444 6.89806 2.92687 6.84298 3.01759 6.80541C3.10832 6.76783 3.20555 6.74848 3.30375 6.74848C3.40195 6.74848 3.49918 6.76783 3.58991 6.80541C3.68063 6.84298 3.76306 6.89806 3.8325 6.9675L6 9.1275L11.16 3.9675C11.3002 3.82727 11.4904 3.74848 11.6887 3.74848C11.8871 3.74848 12.0773 3.82727 12.2175 3.9675C12.3577 4.10773 12.4365 4.29793 12.4365 4.49625C12.4365 4.69457 12.3577 4.88477 12.2175 5.025L6.525 10.7175C6.45561 10.787 6.3732 10.8422 6.28247 10.8798C6.19174 10.9175 6.09448 10.9368 5.99625 10.9368C5.89802 10.9368 5.80076 10.9175 5.71003 10.8798C5.6193 10.8422 5.53689 10.787 5.4675 10.7175Z" fill="black"/>
</svg>
