<svg width="17" height="11" viewBox="0 0 17 11" fill="none" xmlns="http://www.w3.org/2000/svg">
<path d="M16.1905 9.71429V2.42857C16.1905 2.42857 8.82381 7.56905 8.10738 7.83579C7.4031 7.58119 0 2.42857 0 2.42857V9.71429C0 10.7262 0.214524 10.9286 1.21429 10.9286H14.9762C15.9998 10.9286 16.1905 10.7509 16.1905 9.71429ZM16.1787 1.00017C16.1787 0.263095 15.9638 0 14.9762 0H1.21429C0.198333 0 0 0.315714 0 1.05238L0.0121428 1.16571C0.0121428 1.16571 7.32579 6.20095 8.10738 6.47619C8.9331 6.15643 16.1905 1.05238 16.1905 1.05238L16.1787 1.00017Z" fill="white"/>
</svg>
