<svg width="35" height="35" viewBox="0 0 35 35" fill="none" xmlns="http://www.w3.org/2000/svg">
<path d="M17.5 35C22.1743 35 26.5691 33.1797 29.8744 29.8744C33.1797 26.5691 35 22.1743 35 17.5C35 12.8257 33.1797 8.4309 29.8744 5.12562C26.5691 1.82034 22.1743 0 17.5 0C12.8257 0 8.4309 1.82034 5.12562 5.12562C1.82034 8.4309 0 12.8257 0 17.5C0 22.1743 1.82034 26.5691 5.12562 29.8744C8.4309 33.1797 12.8257 35 17.5 35ZM17.5 2.73438C25.6417 2.73438 32.2656 9.35829 32.2656 17.5C32.2656 25.6417 25.6417 32.2656 17.5 32.2656C9.35829 32.2656 2.73438 25.6417 2.73438 17.5C2.73438 9.35829 9.35829 2.73438 17.5 2.73438ZM10.3711 17.5L19.8242 8.04691L21.7578 9.98047L14.2382 17.5L21.7578 25.0195L19.8242 26.9531L10.3711 17.5Z" fill="white"/>
</svg>
