<svg width="14" height="8" viewBox="0 0 14 8" fill="none" xmlns="http://www.w3.org/2000/svg">
<path d="M0.437489 1.37498H13.5625C13.804 1.37498 14 1.17896 14 0.937489C14 0.695979 13.8039 0.5 13.5625 0.5H0.437489C0.195979 0.5 0 0.696016 0 0.937489C0 1.17896 0.196015 1.37498 0.437489 1.37498Z" fill="white"/>
<path d="M13.5625 3.56244H0.437489C0.195979 3.56244 0 3.75846 0 3.99993C0 4.2414 0.196015 4.43742 0.437489 4.43742H13.5625C13.804 4.43742 14 4.2414 14 3.99993C14 3.75846 13.804 3.56244 13.5625 3.56244Z" fill="white"/>
<path d="M13.5625 6.62497H4.81248C4.57097 6.62497 4.37499 6.82098 4.37499 7.06245C4.37499 7.30396 4.57101 7.49994 4.81248 7.49994H13.5625C13.804 7.49994 14 7.30393 14 7.06245C14 6.82094 13.804 6.62497 13.5625 6.62497Z" fill="white"/>
</svg>
