<svg width="14" height="15" viewBox="0 0 14 15" fill="none" xmlns="http://www.w3.org/2000/svg">
<path d="M12.432 10.4402C11.5245 9.66519 10.6036 9.19572 9.70727 9.96958L9.17206 10.4373C8.78047 10.7768 8.0524 12.3632 5.23742 9.12957C2.42302 5.90007 4.09783 5.39723 4.49 5.06064L5.02814 4.59234C5.91977 3.81672 5.58328 2.84032 4.94021 1.83523L4.55214 1.22644C3.90613 0.223698 3.20268 -0.434847 2.30871 0.339602L1.82567 0.761071C1.43057 1.04849 0.326148 1.98275 0.0582502 3.7576C-0.264165 5.88719 0.752909 8.32585 3.0831 11.0016C5.41035 13.6785 7.68895 15.0231 9.84738 14.9997C11.6412 14.9804 12.7245 14.0192 13.0633 13.6697L13.5481 13.2477C14.4397 12.4738 13.8858 11.6859 12.9777 10.9091L12.432 10.4402Z" fill="white"/>
</svg>
