<svg width="9" height="13" viewBox="0 0 9 13" fill="none" xmlns="http://www.w3.org/2000/svg">
<path d="M4.5 13C1.49979 9.0415 0 6.22505 0 4.55C-8.80582e-09 3.95249 0.116396 3.36082 0.342542 2.80879C0.568688 2.25676 0.900156 1.75517 1.31802 1.33266C1.73588 0.910158 2.23196 0.575007 2.77792 0.346348C3.32389 0.117689 3.90905 0 4.5 0C5.09095 0 5.67611 0.117689 6.22208 0.346348C6.76804 0.575007 7.26412 0.910158 7.68198 1.33266C8.09984 1.75517 8.43131 2.25676 8.65746 2.80879C8.8836 3.36082 9 3.95249 9 4.55C9 6.22505 7.50021 9.0415 4.5 13ZM4.5 7.15C5.18199 7.15 5.83604 6.87607 6.31827 6.38848C6.80051 5.90088 7.07143 5.23956 7.07143 4.55C7.07143 3.86044 6.80051 3.19912 6.31827 2.71152C5.83604 2.22393 5.18199 1.95 4.5 1.95C3.81801 1.95 3.16396 2.22393 2.68173 2.71152C2.19949 3.19912 1.92857 3.86044 1.92857 4.55C1.92857 5.23956 2.19949 5.90088 2.68173 6.38848C3.16396 6.87607 3.81801 7.15 4.5 7.15Z" fill="white"/>
</svg>
