<svg width="12" height="13" viewBox="0 0 12 13" fill="none" xmlns="http://www.w3.org/2000/svg">
<path d="M10.656 9.04819C9.87816 8.3765 9.08879 7.96962 8.32052 8.64031L7.86177 9.04566C7.52612 9.33991 6.90206 10.7148 4.48922 7.9123C2.07688 5.11339 3.51242 4.6776 3.84857 4.38589L4.30983 3.98003C5.07409 3.30783 4.78567 2.46161 4.23447 1.59053L3.90183 1.06292C3.34812 0.193871 2.74516 -0.376868 1.9789 0.294322L1.56486 0.659595C1.2262 0.908691 0.279556 1.71838 0.0499287 3.25659C-0.226428 5.10223 0.645351 7.21574 2.64265 9.53472C4.63744 11.8547 6.59053 13.02 8.44061 12.9997C9.97815 12.983 10.9067 12.15 11.1971 11.8471L11.6127 11.4813C12.3769 10.8106 11.9021 10.1278 11.1238 9.45456L10.656 9.04819Z" fill="white"/>
</svg>
